<svg viewBox="0 0 24 24" fill="none" xmlns="http://www.w3.org/2000/svg">
  <path d="M12 6c-2.667 0-4.333 1.333-5 4 1-1.333 2.167-1.833 3.5-1.5.76.19 1.302.738 1.904 1.354C13.314 10.78 14.396 12 17 12c2.667 0 4.333-1.333 5-4-1 1.333-2.167 1.833-3.5 1.5-.76-.19-1.302-.738-1.904-1.354C15.686 7.22 14.604 6 12 6zM7 12c-2.667 0-4.333 1.333-5 4 1-1.333 2.167-1.833 3.5-1.5.76.19 1.302.738 1.904 1.354C8.314 16.78 9.396 18 12 18c2.667 0 4.333-1.333 5-4-1 1.333-2.167 1.833-3.5 1.5-.76-.19-1.302-.738-1.904-1.354C10.686 13.22 9.604 12 7 12z" stroke="currentColor" stroke-width="1.5" stroke-linecap="round" stroke-linejoin="round"/>
</svg>
