<svg width="1200" height="300" viewBox="0 0 1200 300" xmlns="http://www.w3.org/2000/svg">
  <defs>
    <linearGradient id="sky" x1="0" y1="0" x2="0" y2="1">
      <stop offset="0%" stop-color="#3A345B"/>
      <stop offset="55%" stop-color="#71557A"/>
      <stop offset="100%" stop-color="#D183A9"/>
    </linearGradient>
    <style>
      .name { font-family: 'Georgia', serif; font-size: 46px; font-weight: 700; fill: #F3C8DD; }
      .role { font-family: 'Verdana', sans-serif; font-size: 16px; letter-spacing: 3px; fill: #F3C8DD; }
      .quote { font-family: 'Georgia', serif; font-style: italic; font-size: 14px; fill: #F3C8DD; opacity: 0.85; }
      .sig { font-family: 'Georgia', serif; font-style: italic; font-size: 13px; fill: #F3C8DD; opacity: 0.6; }
    </style>
  </defs>

  <rect width="1200" height="300" fill="url(#sky)"/>

  <circle cx="1110" cy="60" r="38" fill="#F3C8DD" opacity="0.9"/>
  <circle cx="1110" cy="60" r="38" fill="#3A345B" opacity="0.12"/>

  <path d="M0,300 L0,210 Q150,150 320,200 Q480,240 620,180 Q760,130 900,190 Q1050,230 1200,170 L1200,300 Z" fill="#4B1535" opacity="0.55"/>
  <path d="M0,300 L0,250 Q200,200 400,245 Q600,280 800,235 Q1000,200 1200,245 L1200,300 Z" fill="#3A345B" opacity="0.8"/>
  <path d="M0,300 L0,275 Q250,255 500,278 Q750,295 1000,270 Q1100,260 1200,272 L1200,300 Z" fill="#26214a"/>

  <text x="60" y="60" class="role">SHARYAR NAVEED</text>
  <text x="60" y="105" class="name">Web Developer &#183; Creative Developer</text>

  <text x="60" y="195" class="quote">"Good products are built quietly, with care, one</text>
  <text x="60" y="215" class="quote">small decision at a time."</text>
  <text x="60" y="252" class="sig">&#8212; Sharyar</text>
</svg>
